M48
; DRILL file {KiCad 7.0.8+dfsg-1} date Sat 11 Nov 2023 08:14:33 PM -05
; FORMAT={-:-/ absolute / metric / decimal}
; #@! TF.CreationDate,2023-11-11T20:14:33-05:00
; #@! TF.GenerationSoftware,Kicad,Pcbnew,7.0.8+dfsg-1
; #@! TF.FileFunction,MixedPlating,1,2
FMAT,2
METRIC
; #@! TA.AperFunction,Plated,PTH,ComponentDrill
T1C0.650
; #@! TA.AperFunction,Plated,PTH,ComponentDrill
T2C0.750
; #@! TA.AperFunction,Plated,PTH,ComponentDrill
T3C0.800
; #@! TA.AperFunction,Plated,PTH,ComponentDrill
T4C1.000
; #@! TA.AperFunction,Plated,PTH,ComponentDrill
T5C1.020
; #@! TA.AperFunction,Plated,PTH,ComponentDrill
T6C1.320
; #@! TA.AperFunction,Plated,PTH,ComponentDrill
T7C1.520
; #@! TA.AperFunction,Plated,PTH,ComponentDrill
T8C3.200
; #@! TA.AperFunction,NonPlated,NPTH,ComponentDrill
T9C1.500
; #@! TA.AperFunction,NonPlated,NPTH,ComponentDrill
T10C1.800
%
G90
G05
T1
X22.86Y-12.48
X24.13Y-12.48
X25.4Y-12.48
T2
X25.4Y48.48
X25.4Y47.21
X25.4Y45.94
T3
X10.16Y45.94
X20.32Y45.94
X25.4Y63.72
X25.4Y53.56
X35.56Y61.18
X35.56Y51.02
X40.64Y66.26
X40.64Y56.1
T4
X-2.84Y31.855
X-2.84Y29.085
X-2.84Y26.315
X-2.84Y23.545
X-2.84Y20.775
X-2.84Y18.005
X-2.84Y15.235
X-2.84Y12.465
X-2.84Y9.695
X-2.84Y6.925
X-2.84Y4.155
X-2.84Y1.385
X0.0Y33.24
X0.0Y30.47
X0.0Y27.7
X0.0Y24.93
X0.0Y22.16
X0.0Y19.39
X0.0Y16.62
X0.0Y13.85
X0.0Y11.08
X0.0Y8.31
X0.0Y5.54
X0.0Y2.77
X0.0Y0.0
T5
X14.355Y41.775
X14.355Y39.235
X14.355Y36.695
X14.355Y34.155
X14.355Y31.615
X14.355Y29.075
X14.355Y26.535
X14.355Y23.995
X14.355Y21.455
X14.355Y18.915
X14.355Y16.375
X14.355Y13.835
X14.355Y11.295
X14.355Y8.755
X14.355Y6.215
X14.355Y3.675
X14.355Y1.135
X14.355Y-1.405
X14.355Y-3.945
X14.355Y-6.485
X20.705Y-6.255
X23.245Y-6.255
X25.785Y-6.255
X32.135Y41.775
X32.135Y39.235
X32.135Y36.695
X32.135Y34.155
X32.135Y31.615
X32.135Y29.075
X32.135Y26.535
X32.135Y23.995
X32.135Y21.455
X32.135Y18.915
X32.135Y16.375
X32.135Y13.835
X32.135Y11.295
X32.135Y8.755
X32.135Y6.215
X32.135Y3.675
X32.135Y1.135
X32.135Y-1.405
X32.135Y-3.945
X32.135Y-6.485
T6
X48.26Y40.78
X48.26Y35.78
X48.26Y5.22
X48.26Y0.22
T7
X10.16Y71.34
X15.24Y71.34
X20.32Y71.34
X25.4Y71.34
X30.48Y71.34
T8
X-0.3Y40.17
X-0.3Y-6.93
T9
X20.82Y38.615
X25.67Y38.615
T10
X20.52Y41.645
X25.97Y41.645
T0
M30
